<?xml version="1.0" encoding="utf-8"?>
<!-- Generator: Adobe Illustrator 27.5.0, SVG Export Plug-In . SVG Version: 6.00 Build 0)  -->
<svg version="1.1" id="Layer_1" xmlns="http://www.w3.org/2000/svg" xmlns:xlink="http://www.w3.org/1999/xlink" x="0px" y="0px"
	 viewBox="0 0 600 600" style="enable-background:new 0 0 600 600;" xml:space="preserve">
<style type="text/css">
	.st0{fill:#BC2026;}
</style>
<path class="st0" d="M369.8,316.7c27.4-2.2,56,15.1,80.5,24.6c7.5-27.1-26.4-38.2-43.4-53.3c-1.6-1.5-9.1-8.9-9.4-10.5
	c-0.6-1.8,0.6-1.2,1.3-1.8c2.8-1.8,6.3-2.5,9.1-4c45.3-24,37.7-58.8,11.3-94.9c-20.1-27.7-50.3-50.2-83-61.9
	c-1.9,2.2,22,39.7,6,48.7c-6,3.4-14.2,1.5-19.5-2.5c-9.1-6.5-22-23.4-31.5-32c-13.8-12.6-44.7-41-62-45.3c-1.9-0.3-4.1-0.6-6.3-0.3
	c10.1,15.4,29.2,45.3,0.3,52c-33.3,7.7-75.8-36-99.7-54.8c-0.9-0.6-5.7-4.6-6.6-4c-8.5,28.6-6.6,53.9,8.5,80.1
	c35.9,61.3,95.3,49.6,154.1,68.1c28.9,8.9,56.9,25.9,71.4,53c0.9,1.8,3.1,4.3,0.9,5.5c-56.3,13.2-95.9,59.7-113.2,112.4
	c-25.8,78.5,33,146.9,116.1,122.3c83.7-24.6,115.7-141.7,29.2-184.8c-6.9-3.4-17-5.9-23-9.9c-8.2-5.5,3.1-6.8,8.2-7.1h0.6V316.7z
	 M374.2,417.7c0,20.9-19.8,42.5-43.7,42.5c-23.9,0-40.3-13.6-40.3-34.5c0-20.9,21.4-45.6,45.3-45.6
	C359.4,380.2,374.2,397.1,374.2,417.7L374.2,417.7z"/>
</svg>
